<svg id="visual" viewBox="0 0 1900 1000" width="1900" height="1000" xmlns="http://www.w3.org/2000/svg" xmlns:xlink="http://www.w3.org/1999/xlink" version="1.1"><rect x="0" y="0" width="1900" height="1000" fill="#f0ffff"></rect><path d="M0 282L45.2 279C90.3 276 180.7 270 271.2 277.2C361.7 284.3 452.3 304.7 542.8 317.8C633.3 331 723.7 337 814.2 319.5C904.7 302 995.3 261 1085.8 236C1176.3 211 1266.7 202 1357.2 213C1447.7 224 1538.3 255 1628.8 274.2C1719.3 293.3 1809.7 300.7 1854.8 304.3L1900 308L1900 0L1854.8 0C1809.7 0 1719.3 0 1628.8 0C1538.3 0 1447.7 0 1357.2 0C1266.7 0 1176.3 0 1085.8 0C995.3 0 904.7 0 814.2 0C723.7 0 633.3 0 542.8 0C452.3 0 361.7 0 271.2 0C180.7 0 90.3 0 45.2 0L0 0Z" fill="#0066FF" stroke-linecap="round" stroke-linejoin="miter"></path></svg>